solid OpenSCAD_Model
  facet normal -1 0 0
    outer loop
      vertex -8.5 -8.5 -2
      vertex -8.5 8.5 2
      vertex -8.5 8.5 -2
    endloop
  endfacet
  facet normal -1 -0 0
    outer loop
      vertex -8.5 8.5 2
      vertex -8.5 -8.5 -2
      vertex -8.5 -8.5 2
    endloop
  endfacet
  facet normal 0 0 1
    outer loop
      vertex 8.5 8.5 2
      vertex 7.2 7.2 2
      vertex 8.5 -8.5 2
    endloop
  endfacet
  facet normal 0 0 1
    outer loop
      vertex 8.5 8.5 2
      vertex -7.2 7.2 2
      vertex 7.2 7.2 2
    endloop
  endfacet
  facet normal 0 0 1
    outer loop
      vertex -7.2 7.2 2
      vertex -8.5 8.5 2
      vertex -7.2 -7.2 2
    endloop
  endfacet
  facet normal -0 0 1
    outer loop
      vertex -8.5 8.5 2
      vertex -7.2 7.2 2
      vertex 8.5 8.5 2
    endloop
  endfacet
  facet normal -0 0 1
    outer loop
      vertex 7.2 -7.2 2
      vertex 8.5 -8.5 2
      vertex 7.2 7.2 2
    endloop
  endfacet
  facet normal -0 0 1
    outer loop
      vertex -7.2 -7.2 2
      vertex 8.5 -8.5 2
      vertex 7.2 -7.2 2
    endloop
  endfacet
  facet normal 0 0 1
    outer loop
      vertex -7.2 -7.2 2
      vertex -8.5 -8.5 2
      vertex 8.5 -8.5 2
    endloop
  endfacet
  facet normal 0 0 1
    outer loop
      vertex -8.5 -8.5 2
      vertex -7.2 -7.2 2
      vertex -8.5 8.5 2
    endloop
  endfacet
  facet normal 1 -0 0
    outer loop
      vertex 8.5 -8.5 2
      vertex 8.5 8.5 -2
      vertex 8.5 8.5 2
    endloop
  endfacet
  facet normal 1 0 0
    outer loop
      vertex 8.5 8.5 -2
      vertex 8.5 -8.5 2
      vertex 8.5 -8.5 -2
    endloop
  endfacet
  facet normal 0 1 -0
    outer loop
      vertex 8.5 8.5 -2
      vertex -8.5 8.5 2
      vertex 8.5 8.5 2
    endloop
  endfacet
  facet normal 0 1 0
    outer loop
      vertex -8.5 8.5 2
      vertex 8.5 8.5 -2
      vertex -8.5 8.5 -2
    endloop
  endfacet
  facet normal 0 0 -1
    outer loop
      vertex 8.5 -8.5 -2
      vertex 7.2 -7.2 -2
      vertex 8.5 8.5 -2
    endloop
  endfacet
  facet normal 0 0 -1
    outer loop
      vertex 8.5 -8.5 -2
      vertex -7.2 -7.2 -2
      vertex 7.2 -7.2 -2
    endloop
  endfacet
  facet normal -0 0 -1
    outer loop
      vertex -7.2 -7.2 -2
      vertex -8.5 -8.5 -2
      vertex -7.2 7.2 -2
    endloop
  endfacet
  facet normal 0 0 -1
    outer loop
      vertex -8.5 -8.5 -2
      vertex -7.2 -7.2 -2
      vertex 8.5 -8.5 -2
    endloop
  endfacet
  facet normal 0 0 -1
    outer loop
      vertex 7.2 7.2 -2
      vertex 8.5 8.5 -2
      vertex 7.2 -7.2 -2
    endloop
  endfacet
  facet normal 0 0 -1
    outer loop
      vertex -7.2 7.2 -2
      vertex 8.5 8.5 -2
      vertex 7.2 7.2 -2
    endloop
  endfacet
  facet normal 0 0 -1
    outer loop
      vertex -7.2 7.2 -2
      vertex -8.5 8.5 -2
      vertex 8.5 8.5 -2
    endloop
  endfacet
  facet normal 0 0 -1
    outer loop
      vertex -8.5 8.5 -2
      vertex -7.2 7.2 -2
      vertex -8.5 -8.5 -2
    endloop
  endfacet
  facet normal 0 -1 0
    outer loop
      vertex -8.5 -8.5 -2
      vertex 8.5 -8.5 2
      vertex -8.5 -8.5 2
    endloop
  endfacet
  facet normal 0 -1 -0
    outer loop
      vertex 8.5 -8.5 2
      vertex -8.5 -8.5 -2
      vertex 8.5 -8.5 -2
    endloop
  endfacet
  facet normal 1 0 0
    outer loop
      vertex -7.2 7.2 2
      vertex -7.2 1.375 1.44281
      vertex -7.2 7.2 -2
    endloop
  endfacet
  facet normal 1 0 0
    outer loop
      vertex -7.2 7.2 2
      vertex -7.2 -1.375 1.44281
      vertex -7.2 1.375 1.44281
    endloop
  endfacet
  facet normal 1 0 0
    outer loop
      vertex -7.2 -7.2 -2
      vertex -7.2 -1.375 1.44281
      vertex -7.2 -7.2 2
    endloop
  endfacet
  facet normal 1 -0 0
    outer loop
      vertex -7.2 -7.2 2
      vertex -7.2 -1.375 1.44281
      vertex -7.2 7.2 2
    endloop
  endfacet
  facet normal 1 -0 0
    outer loop
      vertex -7.2 1.375 -1.99614
      vertex -7.2 7.2 -2
      vertex -7.2 1.375 1.44281
    endloop
  endfacet
  facet normal 1 -0 0
    outer loop
      vertex -7.2 -1.375 -1.99614
      vertex -7.2 7.2 -2
      vertex -7.2 1.375 -1.99614
    endloop
  endfacet
  facet normal 1 0 0
    outer loop
      vertex -7.2 -1.375 -1.99614
      vertex -7.2 -7.2 -2
      vertex -7.2 7.2 -2
    endloop
  endfacet
  facet normal 1 0 0
    outer loop
      vertex -7.2 -1.375 1.44281
      vertex -7.2 -7.2 -2
      vertex -7.2 -1.375 -1.99614
    endloop
  endfacet
  facet normal -1 0 0
    outer loop
      vertex 7.2 1.375 1.44281
      vertex 7.2 7.2 -2
      vertex 7.2 1.375 -1.99614
    endloop
  endfacet
  facet normal -1 0 0
    outer loop
      vertex 7.2 7.2 -2
      vertex 7.2 -1.375 -1.99614
      vertex 7.2 1.375 -1.99614
    endloop
  endfacet
  facet normal -1 -0 0
    outer loop
      vertex 7.2 -1.375 -1.99614
      vertex 7.2 -7.2 -2
      vertex 7.2 -1.375 1.44281
    endloop
  endfacet
  facet normal -1 0 0
    outer loop
      vertex 7.2 -7.2 -2
      vertex 7.2 -1.375 -1.99614
      vertex 7.2 7.2 -2
    endloop
  endfacet
  facet normal -1 0 0
    outer loop
      vertex 7.2 7.2 -2
      vertex 7.2 1.375 1.44281
      vertex 7.2 7.2 2
    endloop
  endfacet
  facet normal -1 0 0
    outer loop
      vertex 7.2 -1.375 1.44281
      vertex 7.2 7.2 2
      vertex 7.2 1.375 1.44281
    endloop
  endfacet
  facet normal -1 0 0
    outer loop
      vertex 7.2 -1.375 1.44281
      vertex 7.2 -7.2 2
      vertex 7.2 7.2 2
    endloop
  endfacet
  facet normal -1 0 0
    outer loop
      vertex 7.2 -7.2 2
      vertex 7.2 -1.375 1.44281
      vertex 7.2 -7.2 -2
    endloop
  endfacet
  facet normal 0 -1 0
    outer loop
      vertex -7.2 7.2 -2
      vertex 7.2 7.2 2
      vertex -7.2 7.2 2
    endloop
  endfacet
  facet normal 0 -1 -0
    outer loop
      vertex 7.2 7.2 2
      vertex -7.2 7.2 -2
      vertex 7.2 7.2 -2
    endloop
  endfacet
  facet normal 0 1 -0
    outer loop
      vertex 7.2 -7.2 -2
      vertex -7.2 -7.2 2
      vertex 7.2 -7.2 2
    endloop
  endfacet
  facet normal 0 1 0
    outer loop
      vertex -7.2 -7.2 2
      vertex 7.2 -7.2 -2
      vertex -7.2 -7.2 -2
    endloop
  endfacet
  facet normal -0.912372 0 0.409363
    outer loop
      vertex 6.28645 -1.375 -0.593263
      vertex 7.2 1.375 1.44281
      vertex 6.28645 1.375 -0.593263
    endloop
  endfacet
  facet normal -0.912372 0 0.409363
    outer loop
      vertex 7.2 1.375 1.44281
      vertex 6.28645 -1.375 -0.593263
      vertex 7.2 -1.375 1.44281
    endloop
  endfacet
  facet normal -0.951057 0 0.309016
    outer loop
      vertex 6.22185 -1.375 -0.792088
      vertex 6.28645 1.375 -0.593263
      vertex 6.22185 1.375 -0.792088
    endloop
  endfacet
  facet normal -0.951057 0 0.309016
    outer loop
      vertex 6.28645 1.375 -0.593263
      vertex 6.22185 -1.375 -0.792088
      vertex 6.28645 -1.375 -0.593263
    endloop
  endfacet
  facet normal -0.0154524 0 -0.999881
    outer loop
      vertex 7.09547 -1.375 -1.99452
      vertex 7.2 1.375 -1.99614
      vertex 7.2 -1.375 -1.99614
    endloop
  endfacet
  facet normal -0.0154524 0 -0.999881
    outer loop
      vertex 7.2 1.375 -1.99614
      vertex 7.09547 -1.375 -1.99452
      vertex 7.09547 1.375 -1.99452
    endloop
  endfacet
  facet normal -0.587785 0 -0.809017
    outer loop
      vertex 6.53087 -1.375 -1.74314
      vertex 6.7 1.375 -1.86602
      vertex 6.7 -1.375 -1.86602
    endloop
  endfacet
  facet normal -0.587785 0 -0.809017
    outer loop
      vertex 6.7 1.375 -1.86602
      vertex 6.53087 -1.375 -1.74314
      vertex 6.53087 1.375 -1.74314
    endloop
  endfacet
  facet normal -0.207908 0 -0.978148
    outer loop
      vertex 6.89098 -1.375 -1.95106
      vertex 7.09547 1.375 -1.99452
      vertex 7.09547 -1.375 -1.99452
    endloop
  endfacet
  facet normal -0.207908 0 -0.978148
    outer loop
      vertex 7.09547 1.375 -1.99452
      vertex 6.89098 -1.375 -1.95106
      vertex 6.89098 1.375 -1.95106
    endloop
  endfacet
  facet normal -0.866025 0 -0.5
    outer loop
      vertex 6.39098 -1.375 -1.58778
      vertex 6.28645 1.375 -1.40674
      vertex 6.39098 1.375 -1.58778
    endloop
  endfacet
  facet normal -0.866025 -0 -0.5
    outer loop
      vertex 6.28645 1.375 -1.40674
      vertex 6.39098 -1.375 -1.58778
      vertex 6.28645 -1.375 -1.40674
    endloop
  endfacet
  facet normal -0.743145 0 -0.66913
    outer loop
      vertex 6.53087 -1.375 -1.74314
      vertex 6.39098 1.375 -1.58778
      vertex 6.53087 1.375 -1.74314
    endloop
  endfacet
  facet normal -0.743145 -0 -0.66913
    outer loop
      vertex 6.39098 1.375 -1.58778
      vertex 6.53087 -1.375 -1.74314
      vertex 6.39098 -1.375 -1.58778
    endloop
  endfacet
  facet normal 0 -1 0
    outer loop
      vertex 7.2 -1.375 -1.99614
      vertex 6.28645 -1.375 -0.593263
      vertex 6.22185 -1.375 -0.792088
    endloop
  endfacet
  facet normal 0 -1 0
    outer loop
      vertex 7.2 -1.375 -1.99614
      vertex 6.22185 -1.375 -0.792088
      vertex 6.2 -1.375 -0.999999
    endloop
  endfacet
  facet normal 0 -1 0
    outer loop
      vertex 7.2 -1.375 -1.99614
      vertex 6.2 -1.375 -0.999999
      vertex 6.22185 -1.375 -1.20791
    endloop
  endfacet
  facet normal 0 -1 0
    outer loop
      vertex 7.2 -1.375 -1.99614
      vertex 6.22185 -1.375 -1.20791
      vertex 6.28645 -1.375 -1.40674
    endloop
  endfacet
  facet normal 0 -1 0
    outer loop
      vertex 7.2 -1.375 -1.99614
      vertex 6.28645 -1.375 -1.40674
      vertex 6.39098 -1.375 -1.58778
    endloop
  endfacet
  facet normal 0 -1 0
    outer loop
      vertex 7.2 -1.375 -1.99614
      vertex 6.39098 -1.375 -1.58778
      vertex 6.53087 -1.375 -1.74314
    endloop
  endfacet
  facet normal 0 -1 0
    outer loop
      vertex 7.2 -1.375 -1.99614
      vertex 6.53087 -1.375 -1.74314
      vertex 6.7 -1.375 -1.86602
    endloop
  endfacet
  facet normal 0 -1 0
    outer loop
      vertex 7.2 -1.375 -1.99614
      vertex 6.7 -1.375 -1.86602
      vertex 6.89098 -1.375 -1.95106
    endloop
  endfacet
  facet normal 0 -1 0
    outer loop
      vertex 7.2 -1.375 -1.99614
      vertex 6.89098 -1.375 -1.95106
      vertex 7.09547 -1.375 -1.99452
    endloop
  endfacet
  facet normal 0 -1 0
    outer loop
      vertex 6.28645 -1.375 -0.593263
      vertex 7.2 -1.375 -1.99614
      vertex 7.2 -1.375 1.44281
    endloop
  endfacet
  facet normal -0.994522 0 0.104529
    outer loop
      vertex 6.2 -1.375 -0.999999
      vertex 6.22185 1.375 -0.792088
      vertex 6.2 1.375 -0.999999
    endloop
  endfacet
  facet normal -0.994522 0 0.104529
    outer loop
      vertex 6.22185 1.375 -0.792088
      vertex 6.2 -1.375 -0.999999
      vertex 6.22185 -1.375 -0.792088
    endloop
  endfacet
  facet normal -0.406739 0 -0.913545
    outer loop
      vertex 6.7 -1.375 -1.86602
      vertex 6.89098 1.375 -1.95106
      vertex 6.89098 -1.375 -1.95106
    endloop
  endfacet
  facet normal -0.406739 0 -0.913545
    outer loop
      vertex 6.89098 1.375 -1.95106
      vertex 6.7 -1.375 -1.86602
      vertex 6.7 1.375 -1.86602
    endloop
  endfacet
  facet normal -0.994522 0 -0.104529
    outer loop
      vertex 6.22185 -1.375 -1.20791
      vertex 6.2 1.375 -0.999999
      vertex 6.22185 1.375 -1.20791
    endloop
  endfacet
  facet normal -0.994522 -0 -0.104529
    outer loop
      vertex 6.2 1.375 -0.999999
      vertex 6.22185 -1.375 -1.20791
      vertex 6.2 -1.375 -0.999999
    endloop
  endfacet
  facet normal -0.951057 0 -0.309016
    outer loop
      vertex 6.28645 -1.375 -1.40674
      vertex 6.22185 1.375 -1.20791
      vertex 6.28645 1.375 -1.40674
    endloop
  endfacet
  facet normal -0.951057 -0 -0.309016
    outer loop
      vertex 6.22185 1.375 -1.20791
      vertex 6.28645 -1.375 -1.40674
      vertex 6.22185 -1.375 -1.20791
    endloop
  endfacet
  facet normal 0 1 -0
    outer loop
      vertex 7.2 1.375 -1.99614
      vertex 6.28645 1.375 -0.593263
      vertex 7.2 1.375 1.44281
    endloop
  endfacet
  facet normal 0 1 0
    outer loop
      vertex 6.28645 1.375 -0.593263
      vertex 7.2 1.375 -1.99614
      vertex 6.22185 1.375 -0.792088
    endloop
  endfacet
  facet normal 0 1 0
    outer loop
      vertex 6.22185 1.375 -0.792088
      vertex 7.2 1.375 -1.99614
      vertex 6.2 1.375 -0.999999
    endloop
  endfacet
  facet normal 0 1 0
    outer loop
      vertex 6.2 1.375 -0.999999
      vertex 7.2 1.375 -1.99614
      vertex 6.22185 1.375 -1.20791
    endloop
  endfacet
  facet normal 0 1 0
    outer loop
      vertex 6.22185 1.375 -1.20791
      vertex 7.2 1.375 -1.99614
      vertex 6.28645 1.375 -1.40674
    endloop
  endfacet
  facet normal 0 1 0
    outer loop
      vertex 6.28645 1.375 -1.40674
      vertex 7.2 1.375 -1.99614
      vertex 6.39098 1.375 -1.58778
    endloop
  endfacet
  facet normal 0 1 0
    outer loop
      vertex 6.39098 1.375 -1.58778
      vertex 7.2 1.375 -1.99614
      vertex 6.53087 1.375 -1.74314
    endloop
  endfacet
  facet normal 0 1 0
    outer loop
      vertex 6.53087 1.375 -1.74314
      vertex 7.2 1.375 -1.99614
      vertex 6.7 1.375 -1.86602
    endloop
  endfacet
  facet normal 0 1 0
    outer loop
      vertex 6.7 1.375 -1.86602
      vertex 7.2 1.375 -1.99614
      vertex 6.89098 1.375 -1.95106
    endloop
  endfacet
  facet normal 0 1 0
    outer loop
      vertex 6.89098 1.375 -1.95106
      vertex 7.2 1.375 -1.99614
      vertex 7.09547 1.375 -1.99452
    endloop
  endfacet
  facet normal 0 -1 0
    outer loop
      vertex -7.2 -1.375 -1.99614
      vertex -6.28645 -1.375 -0.593263
      vertex -7.2 -1.375 1.44281
    endloop
  endfacet
  facet normal 0 -1 -0
    outer loop
      vertex -6.28645 -1.375 -0.593263
      vertex -7.2 -1.375 -1.99614
      vertex -6.22185 -1.375 -0.792088
    endloop
  endfacet
  facet normal 0 -1 -0
    outer loop
      vertex -6.22185 -1.375 -0.792088
      vertex -7.2 -1.375 -1.99614
      vertex -6.2 -1.375 -0.999999
    endloop
  endfacet
  facet normal 0 -1 0
    outer loop
      vertex -6.2 -1.375 -0.999999
      vertex -7.2 -1.375 -1.99614
      vertex -6.22185 -1.375 -1.20791
    endloop
  endfacet
  facet normal 0 -1 0
    outer loop
      vertex -6.22185 -1.375 -1.20791
      vertex -7.2 -1.375 -1.99614
      vertex -6.28645 -1.375 -1.40674
    endloop
  endfacet
  facet normal 0 -1 0
    outer loop
      vertex -6.28645 -1.375 -1.40674
      vertex -7.2 -1.375 -1.99614
      vertex -6.39098 -1.375 -1.58778
    endloop
  endfacet
  facet normal 0 -1 0
    outer loop
      vertex -6.39098 -1.375 -1.58778
      vertex -7.2 -1.375 -1.99614
      vertex -6.53087 -1.375 -1.74314
    endloop
  endfacet
  facet normal 0 -1 0
    outer loop
      vertex -6.53087 -1.375 -1.74314
      vertex -7.2 -1.375 -1.99614
      vertex -6.7 -1.375 -1.86602
    endloop
  endfacet
  facet normal 0 -1 0
    outer loop
      vertex -6.7 -1.375 -1.86602
      vertex -7.2 -1.375 -1.99614
      vertex -6.89098 -1.375 -1.95106
    endloop
  endfacet
  facet normal 0 -1 0
    outer loop
      vertex -6.89098 -1.375 -1.95106
      vertex -7.2 -1.375 -1.99614
      vertex -7.09547 -1.375 -1.99452
    endloop
  endfacet
  facet normal 0.912372 -0 0.409363
    outer loop
      vertex -7.2 -1.375 1.44281
      vertex -6.28645 1.375 -0.593263
      vertex -7.2 1.375 1.44281
    endloop
  endfacet
  facet normal 0.912372 0 0.409363
    outer loop
      vertex -6.28645 1.375 -0.593263
      vertex -7.2 -1.375 1.44281
      vertex -6.28645 -1.375 -0.593263
    endloop
  endfacet
  facet normal 0.0154524 0 -0.999881
    outer loop
      vertex -7.2 -1.375 -1.99614
      vertex -7.09547 1.375 -1.99452
      vertex -7.09547 -1.375 -1.99452
    endloop
  endfacet
  facet normal 0.0154524 0 -0.999881
    outer loop
      vertex -7.09547 1.375 -1.99452
      vertex -7.2 -1.375 -1.99614
      vertex -7.2 1.375 -1.99614
    endloop
  endfacet
  facet normal 0.951057 -0 0.309016
    outer loop
      vertex -6.28645 -1.375 -0.593263
      vertex -6.22185 1.375 -0.792088
      vertex -6.28645 1.375 -0.593263
    endloop
  endfacet
  facet normal 0.951057 0 0.309016
    outer loop
      vertex -6.22185 1.375 -0.792088
      vertex -6.28645 -1.375 -0.593263
      vertex -6.22185 -1.375 -0.792088
    endloop
  endfacet
  facet normal 0 1 0
    outer loop
      vertex -7.2 1.375 -1.99614
      vertex -6.28645 1.375 -0.593263
      vertex -6.22185 1.375 -0.792088
    endloop
  endfacet
  facet normal 0 1 0
    outer loop
      vertex -7.2 1.375 -1.99614
      vertex -6.22185 1.375 -0.792088
      vertex -6.2 1.375 -0.999999
    endloop
  endfacet
  facet normal 0 1 0
    outer loop
      vertex -7.2 1.375 -1.99614
      vertex -6.2 1.375 -0.999999
      vertex -6.22185 1.375 -1.20791
    endloop
  endfacet
  facet normal 0 1 0
    outer loop
      vertex -7.2 1.375 -1.99614
      vertex -6.22185 1.375 -1.20791
      vertex -6.28645 1.375 -1.40674
    endloop
  endfacet
  facet normal 0 1 0
    outer loop
      vertex -7.2 1.375 -1.99614
      vertex -6.28645 1.375 -1.40674
      vertex -6.39098 1.375 -1.58778
    endloop
  endfacet
  facet normal 0 1 0
    outer loop
      vertex -7.2 1.375 -1.99614
      vertex -6.39098 1.375 -1.58778
      vertex -6.53087 1.375 -1.74314
    endloop
  endfacet
  facet normal 0 1 0
    outer loop
      vertex -7.2 1.375 -1.99614
      vertex -6.53087 1.375 -1.74314
      vertex -6.7 1.375 -1.86602
    endloop
  endfacet
  facet normal 0 1 0
    outer loop
      vertex -7.2 1.375 -1.99614
      vertex -6.7 1.375 -1.86602
      vertex -6.89098 1.375 -1.95106
    endloop
  endfacet
  facet normal 0 1 0
    outer loop
      vertex -7.2 1.375 -1.99614
      vertex -6.89098 1.375 -1.95106
      vertex -7.09547 1.375 -1.99452
    endloop
  endfacet
  facet normal 0 1 0
    outer loop
      vertex -6.28645 1.375 -0.593263
      vertex -7.2 1.375 -1.99614
      vertex -7.2 1.375 1.44281
    endloop
  endfacet
  facet normal 0.743145 0 -0.66913
    outer loop
      vertex -6.39098 -1.375 -1.58778
      vertex -6.53087 1.375 -1.74314
      vertex -6.39098 1.375 -1.58778
    endloop
  endfacet
  facet normal 0.743145 0 -0.66913
    outer loop
      vertex -6.53087 1.375 -1.74314
      vertex -6.39098 -1.375 -1.58778
      vertex -6.53087 -1.375 -1.74314
    endloop
  endfacet
  facet normal 0.866025 0 -0.5
    outer loop
      vertex -6.28645 -1.375 -1.40674
      vertex -6.39098 1.375 -1.58778
      vertex -6.28645 1.375 -1.40674
    endloop
  endfacet
  facet normal 0.866025 0 -0.5
    outer loop
      vertex -6.39098 1.375 -1.58778
      vertex -6.28645 -1.375 -1.40674
      vertex -6.39098 -1.375 -1.58778
    endloop
  endfacet
  facet normal 0.994522 -0 0.104529
    outer loop
      vertex -6.22185 -1.375 -0.792088
      vertex -6.2 1.375 -0.999999
      vertex -6.22185 1.375 -0.792088
    endloop
  endfacet
  facet normal 0.994522 0 0.104529
    outer loop
      vertex -6.2 1.375 -0.999999
      vertex -6.22185 -1.375 -0.792088
      vertex -6.2 -1.375 -0.999999
    endloop
  endfacet
  facet normal 0.951057 0 -0.309016
    outer loop
      vertex -6.22185 -1.375 -1.20791
      vertex -6.28645 1.375 -1.40674
      vertex -6.22185 1.375 -1.20791
    endloop
  endfacet
  facet normal 0.951057 0 -0.309016
    outer loop
      vertex -6.28645 1.375 -1.40674
      vertex -6.22185 -1.375 -1.20791
      vertex -6.28645 -1.375 -1.40674
    endloop
  endfacet
  facet normal 0.207908 0 -0.978148
    outer loop
      vertex -7.09547 -1.375 -1.99452
      vertex -6.89098 1.375 -1.95106
      vertex -6.89098 -1.375 -1.95106
    endloop
  endfacet
  facet normal 0.207908 0 -0.978148
    outer loop
      vertex -6.89098 1.375 -1.95106
      vertex -7.09547 -1.375 -1.99452
      vertex -7.09547 1.375 -1.99452
    endloop
  endfacet
  facet normal 0.406739 0 -0.913545
    outer loop
      vertex -6.89098 -1.375 -1.95106
      vertex -6.7 1.375 -1.86602
      vertex -6.7 -1.375 -1.86602
    endloop
  endfacet
  facet normal 0.406739 0 -0.913545
    outer loop
      vertex -6.7 1.375 -1.86602
      vertex -6.89098 -1.375 -1.95106
      vertex -6.89098 1.375 -1.95106
    endloop
  endfacet
  facet normal 0.587785 0 -0.809017
    outer loop
      vertex -6.7 -1.375 -1.86602
      vertex -6.53087 1.375 -1.74314
      vertex -6.53087 -1.375 -1.74314
    endloop
  endfacet
  facet normal 0.587785 0 -0.809017
    outer loop
      vertex -6.53087 1.375 -1.74314
      vertex -6.7 -1.375 -1.86602
      vertex -6.7 1.375 -1.86602
    endloop
  endfacet
  facet normal 0.994522 0 -0.104529
    outer loop
      vertex -6.2 -1.375 -0.999999
      vertex -6.22185 1.375 -1.20791
      vertex -6.2 1.375 -0.999999
    endloop
  endfacet
  facet normal 0.994522 0 -0.104529
    outer loop
      vertex -6.22185 1.375 -1.20791
      vertex -6.2 -1.375 -0.999999
      vertex -6.22185 -1.375 -1.20791
    endloop
  endfacet
endsolid OpenSCAD_Model
